<svg width="168" height="213" viewBox="0 0 168 213" fill="none" xmlns="http://www.w3.org/2000/svg">
<path d="M1.17157 27.1716C-0.390526 28.7337 -0.390526 31.2663 1.17157 32.8284L26.6274 58.2843C28.1895 59.8464 30.7222 59.8464 32.2843 58.2843C33.8464 56.7222 33.8464 54.1895 32.2843 52.6274L9.65685 30L32.2843 7.37258C33.8464 5.81049 33.8464 3.27783 32.2843 1.71573C30.7222 0.153631 28.1895 0.153631 26.6274 1.71573L1.17157 27.1716ZM60 26L4 26V34L60 34V26Z" fill="black"/>
<path d="M62.8284 112.828C64.3905 111.266 64.3905 108.734 62.8284 107.172L37.3726 81.7157C35.8105 80.1536 33.2778 80.1536 31.7157 81.7157C30.1536 83.2778 30.1536 85.8105 31.7157 87.3726L54.3431 110L31.7157 132.627C30.1536 134.19 30.1536 136.722 31.7157 138.284C33.2778 139.846 35.8105 139.846 37.3726 138.284L62.8284 112.828ZM4 114L60 114V106L4 106L4 114Z" fill="black"/>
<rect x="6.5" y="158.5" width="150" height="52" fill="white" stroke="black" stroke-width="5"/>
<path d="M93.625 185.113H86.2305V191.16H94.8203V193H83.9805V175.938H94.7031V177.789H86.2305V183.273H93.625V185.113ZM99.332 180.32L99.4023 181.914C100.371 180.695 101.637 180.086 103.199 180.086C105.879 180.086 107.23 181.598 107.254 184.621V193H105.086V184.609C105.078 183.695 104.867 183.02 104.453 182.582C104.047 182.145 103.41 181.926 102.543 181.926C101.84 181.926 101.223 182.113 100.691 182.488C100.16 182.863 99.7461 183.355 99.4492 183.965V193H97.2812V180.32H99.332ZM113.465 177.25V180.32H115.832V181.996H113.465V189.859C113.465 190.367 113.57 190.75 113.781 191.008C113.992 191.258 114.352 191.383 114.859 191.383C115.109 191.383 115.453 191.336 115.891 191.242V193C115.32 193.156 114.766 193.234 114.227 193.234C113.258 193.234 112.527 192.941 112.035 192.355C111.543 191.77 111.297 190.938 111.297 189.859V181.996H108.988V180.32H111.297V177.25H113.465ZM123.637 193.234C121.918 193.234 120.52 192.672 119.441 191.547C118.363 190.414 117.824 188.902 117.824 187.012V186.613C117.824 185.355 118.062 184.234 118.539 183.25C119.023 182.258 119.695 181.484 120.555 180.93C121.422 180.367 122.359 180.086 123.367 180.086C125.016 180.086 126.297 180.629 127.211 181.715C128.125 182.801 128.582 184.355 128.582 186.379V187.281H119.992C120.023 188.531 120.387 189.543 121.082 190.316C121.785 191.082 122.676 191.465 123.754 191.465C124.52 191.465 125.168 191.309 125.699 190.996C126.23 190.684 126.695 190.27 127.094 189.754L128.418 190.785C127.355 192.418 125.762 193.234 123.637 193.234ZM123.367 181.867C122.492 181.867 121.758 182.188 121.164 182.828C120.57 183.461 120.203 184.352 120.062 185.5H126.414V185.336C126.352 184.234 126.055 183.383 125.523 182.781C124.992 182.172 124.273 181.867 123.367 181.867ZM137.23 182.266C136.902 182.211 136.547 182.184 136.164 182.184C134.742 182.184 133.777 182.789 133.27 184V193H131.102V180.32H133.211L133.246 181.785C133.957 180.652 134.965 180.086 136.27 180.086C136.691 180.086 137.012 180.141 137.23 180.25V182.266Z" fill="black"/>
</svg>
