<svg height="424pt" viewBox="0 -5 424.99595 424" width="424pt" xmlns="http://www.w3.org/2000/svg"><path d="m332.460938 149.09375c-2.753907-2.570312-7.082032-2.410156-9.644532.351562-2.566406 2.761719-2.410156 7.082032.351563 9.644532 26.75 24.855468 42.183593 58.015625 43.921875 93.996094h-86.332032c-3.917968-25.699219-26.164062-45.449219-52.941406-45.449219-26.769531 0-49.015625 19.75-52.9375 45.449219h-86.324218c3.605468-73.027344 64.6875-131.335938 139.265624-131.335938 16.546876 0 32.730469 2.839844 48.101563 8.433594 3.546875 1.300781 7.464844-.53125 8.75-4.078125 1.292969-3.542969-.53125-7.457031-4.074219-8.75-16.875-6.144531-34.632812-9.261719-52.777344-9.261719-84.417968 0-153.09375 68.101562-153.09375 151.816406 0 85.121094 68.675782 154.371094 153.09375 154.371094 84.417969 0 153.097657-69.25 153.097657-154.371094 0-41.820312-17.664063-82.214844-48.457031-110.816406zm-104.640626 72.199219c22 0 39.898438 17.898437 39.898438 39.898437 0 22.003906-17.898438 39.898438-39.898438 39.898438s-39.898437-17.898438-39.898437-39.898438 17.898437-39.898437 39.898437-39.898437zm0 179.339843c-74.621093 0-135.742187-59.457031-139.277343-133.894531h86.015625c2.78125 26.929688 25.609375 48.003907 53.261718 48.003907 27.65625 0 50.484376-21.074219 53.269532-48.003907h86.011718c-3.539062 74.4375-64.65625 133.894531-139.28125 133.894531zm0 0"/><path d="m297.402344 140.316406c2.40625 1.386719 4.765625 2.847656 7.082031 4.375 1.15625.761719 2.457031 1.125 3.75 1.125 2.214844 0 4.390625-1.078125 5.707031-3.070312 2.070313-3.144532 1.203125-7.378906-1.945312-9.457032-2.535156-1.671874-5.128906-3.273437-7.769532-4.796874-3.277343-1.886719-7.441406-.765626-9.328124 2.5-1.882813 3.265624-.761719 7.441406 2.503906 9.324218zm0 0"/><path d="m227.820312 288.359375c14.980469 0 27.167969-12.1875 27.167969-27.167969 0-14.980468-12.1875-27.167968-27.167969-27.167968-14.980468 0-27.167968 12.1875-27.167968 27.167968 0 14.980469 12.1875 27.167969 27.167968 27.167969zm0-40.679687c7.449219 0 13.511719 6.0625 13.511719 13.511718 0 7.449219-6.0625 13.511719-13.511719 13.511719-7.449218 0-13.515624-6.0625-13.515624-13.511719 0-7.449218 6.066406-13.511718 13.515624-13.511718zm0 0"/><path d="m384.035156 61.9375c3.769532 0 6.828125-3.054688 6.828125-6.828125v-20.476563c0-3.773437-3.058593-6.828124-6.828125-6.828124-3.769531 0-6.824218 3.054687-6.824218 6.828124v20.476563c0 3.773437 3.054687 6.828125 6.824218 6.828125zm0 0"/><path d="m384.035156 75.589844c-3.769531 0-6.824218 3.058594-6.824218 6.828125v20.480469c0 3.769531 3.054687 6.828124 6.824218 6.828124 3.769532 0 6.828125-3.058593 6.828125-6.828124v-20.480469c0-3.769531-3.058593-6.828125-6.828125-6.828125zm0 0"/><path d="m349.902344 75.589844h20.480468c3.769532 0 6.828126-3.054688 6.828126-6.824219s-3.058594-6.828125-6.828126-6.828125h-20.480468c-3.769532 0-6.828125 3.058594-6.828125 6.828125s3.058593 6.824219 6.828125 6.824219zm0 0"/><path d="m418.167969 61.9375h-20.480469c-3.769531 0-6.824219 3.058594-6.824219 6.828125s3.054688 6.824219 6.824219 6.824219h20.480469c3.769531 0 6.828125-3.054688 6.828125-6.824219s-3.058594-6.828125-6.828125-6.828125zm0 0"/><path d="m14.960938 168.667969c-5.382813 1.632812-9.808594 5.261719-12.460938 10.222656-2.65625 4.957031-3.214844 10.65625-1.585938 16.035156 1.628907 5.382813 5.261719 9.808594 10.21875 12.460938 3.101563 1.660156 6.488282 2.503906 9.90625 2.503906 2.050782 0 4.117188-.304687 6.136719-.917969 11.109375-3.371094 17.410157-15.148437 14.042969-26.261718-3.371094-11.113282-15.160156-17.414063-26.257812-14.042969zm8.253906 27.238281c-1.886719.578125-3.898438.375-5.640625-.554688-1.742188-.933593-3.019531-2.488281-3.589844-4.382812-.574219-1.890625-.378906-3.894531.554687-5.640625.933594-1.742187 2.488282-3.019531 4.378907-3.589844.714843-.21875 1.433593-.320312 2.144531-.320312 3.175781 0 6.121094 2.0625 7.089844 5.253906 1.183594 3.90625-1.03125 8.050781-4.9375 9.234375zm0 0"/><path d="m34.558594.496094c-11.613282 0-21.058594 9.449218-21.058594 21.058594 0 11.609374 9.445312 21.058593 21.058594 21.058593 11.609375 0 21.054687-9.449219 21.054687-21.058593 0-11.609376-9.445312-21.058594-21.054687-21.058594zm0 28.460937c-4.085938 0-7.40625-3.316406-7.40625-7.402343 0-4.082032 3.320312-7.402344 7.40625-7.402344 4.082031 0 7.402344 3.320312 7.402344 7.402344 0 4.085937-3.320313 7.402343-7.402344 7.402343zm0 0"/><path d="m94.242188 112.714844c1.332031 1.332031 3.082031 2 4.828124 2 1.746094 0 3.492188-.667969 4.824219-2l5.238281-5.234375 5.234376 5.234375c1.332031 1.332031 3.082031 2 4.828124 2 1.746094 0 3.492188-.667969 4.824219-2 2.667969-2.664063 2.667969-6.988282 0-9.652344l-5.234375-5.238281 5.234375-5.234375c2.667969-2.664063 2.667969-6.988282 0-9.652344-2.664062-2.667969-6.988281-2.667969-9.652343 0l-5.234376 5.234375-5.238281-5.234375c-2.664062-2.667969-6.988281-2.667969-9.652343 0-2.664063 2.664062-2.664063 6.988281 0 9.652344l5.234374 5.234375-5.234374 5.238281c-2.664063 2.667969-2.664063 6.988281 0 9.652344zm0 0"/><path d="m212.648438 44.964844c6.285156 0 11.382812-5.097656 11.382812-11.386719 0-6.285156-5.097656-11.382813-11.382812-11.382813-6.289063 0-11.386719 5.097657-11.386719 11.382813 0 6.289063 5.097656 11.386719 11.386719 11.386719zm0 0"/><path d="m403.792969 165.554688c-6.285157 0-11.382813 5.097656-11.382813 11.386718 0 6.285156 5.097656 11.382813 11.382813 11.382813 6.289062 0 11.386719-5.097657 11.386719-11.382813 0-6.289062-5.097657-11.386718-11.386719-11.386718zm0 0"/></svg>